<svg xmlns="http://www.w3.org/2000/svg" xmlns:xlink="http://www.w3.org/1999/xlink" width="35" height="34" viewBox="0 0 35 34"><defs><path id="evtya" d="M1348.42 5321.894c0 9.389-7.611 17-17 17s-17-7.611-17-17 7.611-17 17-17 17 7.611 17 17z"/><path id="evtyb" d="M1340.257 5319.708a8.862 8.862 0 0 1-.522 5.26 8.945 8.945 0 0 1-.822 1.513 9.158 9.158 0 0 1-1.094 1.318 8.545 8.545 0 0 1-1.32 1.083 8.808 8.808 0 0 1-3.201 1.344 9.05 9.05 0 0 1-3.598 0 8.897 8.897 0 0 1-3.201-1.344 8.946 8.946 0 0 1-1.322-1.083 8.985 8.985 0 0 1-1.914-2.831 8.906 8.906 0 0 1-.522-5.26 8.764 8.764 0 0 1 1.348-3.188 8.787 8.787 0 0 1 1.088-1.318 9.39 9.39 0 0 1 1.322-1.088c.478-.32.992-.598 1.52-.822a9.23 9.23 0 0 1 1.681-.518 8.936 8.936 0 0 1 1.801-.181c.603 0 1.21.06 1.797.181a9.136 9.136 0 0 1 1.681.518 8.95 8.95 0 0 1 2.84 1.91c.407.402.772.846 1.094 1.318.322.475.6.985.822 1.514.229.535.406 1.102.522 1.674zm-10.555-5.6c.113.15 1.547 2.05 2.852 4.438 2.882-1.077 3.968-2.725 3.988-2.756a7.61 7.61 0 0 0-5.043-1.897c-.62 0-1.22.077-1.797.215zm-.055.012h.007l.017-.006-.024.006zm-5.619 5.81c.201.006 3.385.043 7.05-.927a45.085 45.085 0 0 0-2.837-4.381 7.615 7.615 0 0 0-4.213 5.309zm8 1.627l.303-.09a29.13 29.13 0 0 0-.621-1.292c-3.932 1.172-7.703 1.087-7.838 1.084-.002.08-.008.16-.008.24 0 1.953.74 3.734 1.953 5.08.004-.004 2.094-3.694 6.211-5.022zm2.451 6.946c-.11-.664-.556-2.994-1.63-5.776l-.051.018c-4.44 1.54-5.93 4.62-5.985 4.74a7.604 7.604 0 0 0 7.666 1.018zm4.557-5.795c-.156-.051-2.291-.727-4.756-.332 1 2.742 1.408 4.973 1.485 5.432a7.594 7.594 0 0 0 3.271-5.1zm.096-1.285a7.552 7.552 0 0 0-1.737-4.754c-.013.02-1.238 1.785-4.253 3.01.18.36.347.73.507 1.103.057.133.112.262.166.393 2.623-.328 5.205.224 5.317.248zm-12.466 5.964l.142.11-.142-.11z"/></defs><g><g transform="translate(-1314 -5305)"><use fill="#ff3298" xlink:href="#evtya"/></g><g transform="translate(-1314 -5305)"><use fill="#fff" xlink:href="#evtyb"/></g></g></svg>