<svg xmlns="http://www.w3.org/2000/svg" xmlns:xlink="http://www.w3.org/1999/xlink" width="78" height="58" viewBox="0 0 78 58"><defs><path id="avtha" d="M994.308 608.91a6.75 6.75 0 0 1-8.93-3.372 6.715 6.715 0 0 1-.566-3.398l-23.39-8.834a8.71 8.71 0 0 1-4.255 4.124c-3.476 1.57-7.427.675-9.921-1.932l-12.867 10.153c.08.15.163.3.234.457a6.752 6.752 0 0 1-3.372 8.931 6.752 6.752 0 0 1-8.929-3.375 6.746 6.746 0 0 1 10.858-7.608l12.863-10.151a8.581 8.581 0 0 1-.443-.846 8.752 8.752 0 0 1 6.96-12.293l.17-8.923a6.75 6.75 0 1 1 1.998.038l-.17 8.89c2.96.338 5.676 2.17 6.991 5.084.82 1.815.96 3.76.544 5.561l23.214 8.77a6.723 6.723 0 0 1 3.455-3.578 6.747 6.747 0 0 1 8.929 3.373 6.748 6.748 0 0 1-3.373 8.93zm-34.591-22.232a6.758 6.758 0 0 0-8.929-3.373 6.757 6.757 0 0 0-3.374 8.93 6.756 6.756 0 0 0 8.93 3.372 6.757 6.757 0 0 0 3.373-8.929z"/></defs><g><g transform="translate(-921 -558)"><use fill="#ffc400" xlink:href="#avtha"/></g></g></svg>