<svg xmlns="http://www.w3.org/2000/svg" xmlns:xlink="http://www.w3.org/1999/xlink" width="35" height="35" viewBox="0 0 35 35"><defs><path id="bux6a" d="M1210.525 5321.494c0 9.388-7.611 17-17 17-9.388 0-17-7.612-17-17 0-9.39 7.612-17 17-17 9.389 0 17 7.61 17 17z"/><path id="bux6b" d="M1191.111 5329.906h3.713v-8.9h2.506l.324-3.145h-2.83v-1.847c0-.694.463-.858.787-.858h1.996v-3.052l-2.75-.01c-3.051 0-3.746 2.277-3.746 3.734v2.033h-1.765v3.145h1.765z"/></defs><g><g transform="translate(-1176 -5304)"><use fill="#347cd2" xlink:href="#bux6a"/></g><g transform="translate(-1176 -5304)"><use fill="#fff" xlink:href="#bux6b"/></g></g></svg>