<svg xmlns="http://www.w3.org/2000/svg" xmlns:xlink="http://www.w3.org/1999/xlink" width="34" height="34" viewBox="0 0 34 34"><defs><path id="n9raa" d="M1304.047 5322.087c0 9.39-7.612 17-17 17-9.389 0-17-7.61-17-17 0-9.389 7.611-17 17-17 9.388 0 17 7.611 17 17z"/><path id="n9rab" d="M1289.254 5314.323h-1.383c.977.557 1.495 1.705 1.495 2.969 0 1.16-.645 2.095-1.555 2.806-.892.692-1.06.983-1.06 1.57 0 .503 1.063 1.253 1.552 1.62 1.7 1.27 2.045 2.068 2.045 3.66 0 1.984-2.145 3.959-5.636 3.959-3.062 0-5.646-1.242-5.646-3.226 0-2.016 2.144-4.114 5.205-4.114.334 0 .64-.008.957-.008-.42-.408-.757-.757-.757-1.37 0-.364.115-.712.279-1.024a7.134 7.134 0 0 1-.51.021c-2.515 0-3.981-1.76-3.981-3.968 0-2.163 2.23-4.125 4.903-4.125h5.27zm-2.917 10.084a4.641 4.641 0 0 0-1.371-.22c-2.118-.024-3.91 1.333-3.91 2.903 0 1.604 1.528 2.938 3.645 2.938 2.976 0 4.013-1.254 4.013-2.855a2.43 2.43 0 0 0-.069-.567c-.233-.908-1.159-1.404-2.308-2.2zm.912-7.035c-.245-1.86-1.46-3.383-2.88-3.426-1.42-.043-2.375 1.38-2.127 3.238.244 1.858 1.593 3.155 3.015 3.2 1.419.04 2.236-1.155 1.992-3.012zm9.685-1.615v1.208h-2.432v2.424h-1.217v-2.424h-2.429v-1.208h2.43v-2.424h1.216v2.424z"/></defs><g><g transform="translate(-1270 -5305)"><use fill="#ff4032" xlink:href="#n9raa"/></g><g transform="translate(-1270 -5305)"><use fill="#fff" xlink:href="#n9rab"/></g></g></svg>