<svg xmlns="http://www.w3.org/2000/svg" xmlns:xlink="http://www.w3.org/1999/xlink" width="64" height="58" viewBox="0 0 64 58"><defs><path id="ezo6a" d="M1373 969v24c-.007 2.322-1.7 3.985-4.021 3.992h-30.605a1.42 1.42 0 0 0-1.405 1.399L1337 1004h-3v-6c.004-2.322 1.677-3.996 4-4h31c.762-.006 1-.237 1-1v-24c0-.76-.238-2-1-2h-14c-.219 3.756-1.725 7.476-3.42 10.088-1.781 2.754-4.375 4.685-7.395 4.908v.042h-.552L1344 982h-15c-.61 1.566-2.214 2.994-4 3h-4c-2.321-.006-3.994-1.677-4-4v-6l-5.784-.085c-.77 0-1.402-.633-1.402-1.405 0-.771.631-1.402 1.402-1.402L1317 972v-12h-6c-.77 0-1-.84-1-2 0-.1.123-1 1-1h6v-7c.006-2.32 1.679-3.996 4-4h4c2.063.004 3.64 2.04 4 4h15c3.02.22 5.799 1.995 7.58 4.744 1.695 2.618 3.201 5.5 3.42 9.256h14c2.321.002 3.991 2.678 4 5zm-46.248-18.443c0-.76-.99-1.553-1.752-1.557h-3c-.76.004-1.904.796-1.906 1.557v29.96c.002.762.64 1.4 1.401 1.402h3.856a1.418 1.418 0 0 0 1.4-1.401zM1341 979v-26h-11v26zm10.807-13.079c.003-3.822-1.02-7.258-2.579-9.647-1.431-2.187-3.395-3.068-5.228-3.274v26c1.833-.206 3.797-1.253 5.228-3.44 1.56-2.387 2.582-5.825 2.579-9.639z"/></defs><g><g transform="translate(-1309 -946)"><use fill="#00c6bf" xlink:href="#ezo6a"/></g></g></svg>