<svg xmlns="http://www.w3.org/2000/svg" xmlns:xlink="http://www.w3.org/1999/xlink" width="71" height="55" viewBox="0 0 71 55"><defs><path id="zv3ka" d="M945 997h32v3h-32zm51-47v36c-.014 2.89-2.113 5.994-5 6h-61c-2.885-.006-4.996-3.11-5-6v-36c.004-2.89 2.115-4.999 5-5h61c2.887.006 4.986 2.108 5 5zm-2.97.092c0-.898-1.14-2.087-2.03-2.092h-61c-.897.005-2.037 1.194-2.037 2.092v36.14c0 .895 1.14 2.768 2.037 2.768h61c.89 0 2.03-1.873 2.03-2.769z"/></defs><g><g transform="translate(-925 -945)"><use fill="#00c6bf" xlink:href="#zv3ka"/></g></g></svg>