<svg xmlns="http://www.w3.org/2000/svg" xmlns:xlink="http://www.w3.org/1999/xlink" width="59" height="60" viewBox="0 0 59 60"><defs><path id="gtfka" d="M547.652 981.937l-2.087-2.087 30.017-30.017-4.976-4.972a1.525 1.525 0 0 0-1.088-.45c-.4.002-.786.152-1.086.45l-31.646 31.648-2.087-2.087 31.644-31.647a4.483 4.483 0 0 1 3.175-1.313c1.144 0 2.3.437 3.175 1.312l12.035 12.032a4.473 4.473 0 0 1 1.311 3.172 4.49 4.49 0 0 1-1.311 3.174l-31.652 31.65-2.086-2.088 31.651-31.648h-.002a1.52 1.52 0 0 0 .45-1.088 1.523 1.523 0 0 0-.448-1.085l-4.97-4.973zm-2.679 12.712c.603.608 1.08 1.332 1.094 2.29.018.75-.414 1.518-.985 1.915-.564.414-1.203.584-1.88.646l-11.967 1.024a4.77 4.77 0 0 1-.35.014h-.01c-1.066 0-2.072-.413-2.783-1.13-.726-.714-1.136-1.727-1.132-2.795 0-.131.004-.263.02-.386l1.022-11.923c.062-.68.227-1.317.642-1.884.395-.571 1.17-1.005 1.917-.985.958.016 1.68.496 2.292 1.095zm-2.244 1.931l-11.808-11.809-1.003 11.72h-.016c.007.075.009.118.009.122.045.653.32.93.974.974.048 0 .096-.004.125-.004z"/></defs><g><g transform="translate(-527 -941)"><use fill="#00c6bf" xlink:href="#gtfka"/></g></g></svg>