<svg xmlns="http://www.w3.org/2000/svg" xmlns:xlink="http://www.w3.org/1999/xlink" width="21" height="20" viewBox="0 0 21 20"><defs><path id="xry3a" d="M1412.575 48.05l-4.848-4.85a8.707 8.707 0 0 1-5.819 2.227 8.748 8.748 0 0 1-8.748-8.749 8.748 8.748 0 0 1 8.748-8.75 8.75 8.75 0 0 1 8.751 8.75 8.706 8.706 0 0 1-1.597 5.03l4.928 4.927zm-10.667-4.623a6.756 6.756 0 0 0 6.75-6.749 6.757 6.757 0 0 0-6.75-6.75 6.756 6.756 0 0 0-6.748 6.75 6.755 6.755 0 0 0 6.748 6.749z"/></defs><g><g transform="translate(-1393 -28)"><use fill="#00c6bf" xlink:href="#xry3a"/></g></g></svg>