<svg xmlns="http://www.w3.org/2000/svg" xmlns:xlink="http://www.w3.org/1999/xlink" width="131" height="197" viewBox="0 0 131 197"><defs><path id="9r51a" d="M1397.579 859.43c0 6.86-1.458 13.482-4.372 19.868-2.915 6.388-7.373 11.895-13.373 16.524 8.744 4.458 15.408 10.781 19.996 18.968 4.584 8.186 6.879 17.423 6.879 27.71 0 9.088-1.672 17.404-5.015 24.947-3.344 7.545-7.952 14.038-13.823 19.482-5.873 5.444-12.775 9.665-20.703 12.665-7.93 3-16.482 4.502-25.654 4.502-9.258 0-17.746-1.48-25.461-4.437-7.715-2.958-14.403-7.137-20.06-12.537-5.66-5.401-10.14-11.895-13.438-19.482-3.301-7.587-5.207-16.052-5.723-25.397h36.135c0 4.372.62 8.531 1.865 12.473 1.24 3.945 3.086 7.394 5.53 10.352 2.442 2.958 5.42 5.294 8.936 7.007 3.513 1.717 7.587 2.574 12.216 2.574 4.457 0 8.507-.793 12.152-2.38 3.643-1.586 6.75-3.771 9.322-6.559 2.573-2.785 4.543-6.128 5.916-10.03 1.37-3.898 2.057-8.165 2.057-12.794 0-9.6-2.787-16.91-8.359-21.925-5.573-5.014-13.803-7.522-24.688-7.522h-14.788V884.12h11.186c18.432 0 27.647-8.359 27.647-25.075 0-7.286-1.908-12.838-5.722-16.653-3.815-3.814-9.28-5.722-16.395-5.722-14.746 0-23.146 9.473-25.203 28.418h-35.748c1.028-9.428 3.279-17.745 6.75-24.946 3.472-7.202 7.865-13.245 13.18-18.13 5.316-4.888 11.423-8.573 18.325-11.06 6.899-2.485 14.293-3.73 22.182-3.73 8.828 0 16.823 1.287 23.983 3.858 7.156 2.573 13.287 6.172 18.388 10.802 5.1 4.629 9.022 10.139 11.766 16.524 2.742 6.386 4.114 13.395 4.114 21.024z"/></defs><g><g transform="translate(-1276 -807)"><use fill="#eff7fa" xlink:href="#9r51a"/></g></g></svg>