<svg xmlns="http://www.w3.org/2000/svg" xmlns:xlink="http://www.w3.org/1999/xlink" width="35" height="35" viewBox="0 0 35 35"><defs><path id="pa0ma" d="M1256.441 5321.755c0 9.389-7.611 17-17 17-9.388 0-17-7.611-17-17s7.612-17 17-17c9.389 0 17 7.611 17 17z"/><path id="pa0mb" d="M1231.56 5327.595a10.408 10.408 0 0 0 5.624 1.643c6.747 0 10.437-5.57 10.437-10.399 0-.158-.003-.316-.011-.472a7.396 7.396 0 0 0 1.83-1.893 7.242 7.242 0 0 1-2.106.575 3.654 3.654 0 0 0 1.612-2.02 7.33 7.33 0 0 1-2.33.885 3.67 3.67 0 0 0-2.676-1.153 3.66 3.66 0 0 0-3.574 4.487 10.424 10.424 0 0 1-7.56-3.818 3.646 3.646 0 0 0 1.135 4.879 3.613 3.613 0 0 1-1.663-.457v.046a3.663 3.663 0 0 0 2.942 3.584 3.654 3.654 0 0 1-1.655.063 3.664 3.664 0 0 0 3.426 2.537 7.376 7.376 0 0 1-4.556 1.564c-.296 0-.587-.015-.875-.05z"/></defs><g><g transform="translate(-1222 -5304)"><use fill="#1ec4ff" xlink:href="#pa0ma"/></g><g transform="translate(-1222 -5304)"><use fill="#fff" xlink:href="#pa0mb"/></g></g></svg>