<svg xmlns="http://www.w3.org/2000/svg" xmlns:xlink="http://www.w3.org/1999/xlink" width="132" height="194" viewBox="0 0 132 194"><defs><path id="jv2ta" d="M1025.32 1001.009H894.672c0-15.688 3.685-29.104 11.058-40.25 3.43-5.143 8.36-10.844 14.79-17.101 6.43-6.258 14.357-13.2 23.789-20.832 8.4-6.77 15.472-12.73 21.217-17.874 5.742-5.145 10.371-9.966 13.888-14.467 3.514-4.5 6.022-8.937 7.521-13.309 1.5-4.372 2.251-9.172 2.251-14.402 0-8.23-2.315-14.637-6.944-19.225-4.629-4.585-11.23-6.88-19.803-6.88-3.6 0-7.03.708-10.287 2.123-3.258 1.414-6.13 3.536-8.615 6.365-2.487 2.83-4.565 6.365-6.236 10.609-1.672 4.243-2.68 9.151-3.024 14.723h-35.875c.772-9.6 2.848-18.302 6.237-26.103 3.384-7.801 7.863-14.445 13.437-19.933 5.571-5.484 12.15-9.729 19.738-12.73 7.587-3 15.965-4.5 25.139-4.5 9.858 0 18.647 1.436 26.362 4.308 7.716 2.873 14.188 6.815 19.417 11.83 5.228 5.014 9.214 10.93 11.96 17.746 2.742 6.815 4.115 14.209 4.115 22.181 0 7.288-.987 14.039-2.958 20.252-1.974 6.218-4.931 12.111-8.873 17.682-3.687 5.144-9.238 11.296-16.652 18.453-7.416 7.16-16.482 15.238-27.198 24.24-6.345 5.4-11.81 10.18-16.396 14.337-4.587 4.16-7.994 7.524-10.222 10.095h82.812z"/></defs><g><g transform="translate(-894 -807)"><use fill="#eff7fa" xlink:href="#jv2ta"/></g></g></svg>